<svg aria-hidden="true" style="position: absolute; width: 0; height: 0; overflow: hidden;" version="1.1" xmlns="http://www.w3.org/2000/svg" xmlns:xlink="http://www.w3.org/1999/xlink">
<defs>
<symbol id="icon-book-open" viewBox="0 0 32 32">
<path stroke-linejoin="round" fill="none" stroke="currentColor" stroke-linecap="round" stroke-miterlimit="4" stroke-width="3" d="M29.333 8.267c0-1.493 0-2.24-0.291-2.811-0.256-0.502-0.664-0.91-1.165-1.165-0.571-0.291-1.317-0.291-2.811-0.291h-0.533c-2.987 0-4.48 0-5.621 0.581-1.004 0.511-1.819 1.327-2.331 2.331-0.581 1.141-0.581 2.634-0.581 5.621v15.467l0.133-0.2c0.926-1.389 1.389-2.084 2.001-2.587 0.542-0.445 1.166-0.779 1.837-0.983 0.758-0.23 1.593-0.23 3.262-0.23h1.833c1.494 0 2.24 0 2.811-0.291 0.502-0.256 0.91-0.664 1.165-1.165 0.291-0.57 0.291-1.317 0.291-2.811v-11.467z"></path>
<path stroke-linejoin="round" fill="none" stroke="currentColor" stroke-linecap="round" stroke-miterlimit="4" stroke-width="3" d="M2.667 8.267c0-1.493 0-2.24 0.291-2.811 0.256-0.502 0.664-0.91 1.165-1.165 0.57-0.291 1.317-0.291 2.811-0.291h0.533c2.987 0 4.48 0 5.621 0.581 1.004 0.511 1.819 1.327 2.331 2.331 0.581 1.141 0.581 2.634 0.581 5.621v15.467l-0.133-0.2c-0.926-1.389-1.389-2.084-2.001-2.587-0.542-0.445-1.166-0.779-1.837-0.983-0.758-0.23-1.593-0.23-3.262-0.23h-1.833c-1.493 0-2.24 0-2.811-0.291-0.502-0.256-0.91-0.664-1.165-1.165-0.291-0.57-0.291-1.317-0.291-2.811v-11.467z"></path>
</symbol>
<symbol id="icon-heart" viewBox="0 0 25 22">
  <path
    d="M21.8989 2.74614C21.3456 2.19257 20.6886 1.75343 19.9655 1.45382C19.2425 1.15421 18.4674 1 17.6847 1C16.902 1 16.127 1.15421 15.4039 1.45382C14.6809 1.75343 14.0239 2.19257 13.4706 2.74614L12.3222 3.89448L11.1739 2.74614C10.0562 1.62848 8.54035 1.00058 6.95973 1.00058C5.37911 1.00058 3.86323 1.62848 2.74557 2.74614C1.6279 3.86381 1 5.37969 1 6.96031C1 8.54093 1.6279 10.0568 2.74557 11.1745L3.8939 12.3228L12.3222 20.7511L20.7506 12.3228L21.8989 11.1745C22.4525 10.6212 22.8916 9.96419 23.1912 9.24111C23.4908 8.51803 23.645 7.74301 23.645 6.96031C23.645 6.17762 23.4908 5.40259 23.1912 4.67951C22.8916 3.95643 22.4525 3.29946 21.8989 2.74614Z"
    fill="currentColor #fff"             
    stroke="currentColor"     
    stroke-width="2"
    stroke-linecap="round"
    stroke-linejoin="round"
  />
</symbol>
<symbol id="icon-star" viewBox="0 0 15 14">
  <path
    d="M8.88965 4.12573C9.0488 4.42725 9.33887 4.63786 9.6748 4.69604L13.4746 5.35229L10.7871 8.11987C10.5496 8.36444 10.4388 8.70526 10.4873 9.04272L11.0361 12.8601L7.5752 11.1589L7.45801 11.1091C7.21993 11.0245 6.95976 11.0245 6.72168 11.1091L6.60449 11.1589L3.14258 12.8601L3.69238 9.04272C3.74091 8.70526 3.6301 8.36444 3.39258 8.11987L0.704102 5.35229L4.50488 4.69604C4.84082 4.63786 5.13088 4.42725 5.29004 4.12573L7.08984 0.7146L8.88965 4.12573Z"
    fill="currentColor"
    stroke="currentColor"
    stroke-width="1.2"
    stroke-linejoin="round"
    stroke-linecap="round"
  />
</symbol>
</defs>
</svg>
